<svg width="23" height="22" viewBox="0 0 23 22" fill="none" xmlns="http://www.w3.org/2000/svg">
<path d="M20.081 21.56H2C1.73478 21.56 1.48043 21.4546 1.29289 21.2671C1.10536 21.0796 1 20.8252 1 20.56V11.532C1 11.2668 1.10536 11.0124 1.29289 10.8249C1.48043 10.6374 1.73478 10.532 2 10.532H2.506V7.323C2.04005 7.21695 1.59385 7.03772 1.184 6.792L0.484 6.37C0.336275 6.28101 0.214074 6.15533 0.129267 6.00517C0.0444597 5.855 -7.08587e-05 5.68546 8.46341e-08 5.513V1.5C8.46341e-08 1.23478 0.105357 0.98043 0.292893 0.792893C0.48043 0.605357 0.734784 0.5 1 0.5H21.085C21.3502 0.5 21.6046 0.605357 21.7921 0.792893C21.9796 0.98043 22.085 1.23478 22.085 1.5V5.513C22.085 5.68555 22.0403 5.85516 21.9553 6.00534C21.8703 6.15551 21.7479 6.28113 21.6 6.37L20.9 6.791C20.4899 7.03711 20.0433 7.21667 19.577 7.323V10.531H20.083C20.3482 10.531 20.6026 10.6364 20.7901 10.8239C20.9776 11.0114 21.083 11.2658 21.083 11.531V20.56C21.083 20.6915 21.0571 20.8217 21.0067 20.9431C20.9563 21.0646 20.8825 21.1749 20.7894 21.2678C20.6963 21.3607 20.5859 21.4343 20.4643 21.4845C20.3427 21.5346 20.2125 21.5603 20.081 21.56ZM3 19.56H19.081V12.532H3V19.56ZM4.506 10.532H17.574V7.323C17.108 7.21665 16.6618 7.03709 16.252 6.791L16.064 6.678L15.876 6.791C15.1745 7.21257 14.3714 7.43528 13.553 7.43528C12.7346 7.43528 11.9315 7.21257 11.23 6.791L11.042 6.678L10.854 6.791C10.1525 7.21257 9.34945 7.43528 8.531 7.43528C7.71255 7.43528 6.90953 7.21257 6.208 6.791L6.02 6.678L5.832 6.791C5.4222 7.03704 4.976 7.2166 4.51 7.323L4.506 10.532ZM16.064 4.513C16.245 4.51294 16.4227 4.56201 16.578 4.655L17.278 5.076C17.6688 5.31075 18.1161 5.43476 18.572 5.43476C19.0279 5.43476 19.4752 5.31075 19.866 5.076L20.082 4.946V2.5H2V4.946L2.217 5.076C2.60781 5.31075 3.05511 5.43476 3.511 5.43476C3.96689 5.43476 4.41419 5.31075 4.805 5.076L5.505 4.655C5.66042 4.56175 5.83825 4.51249 6.0195 4.51249C6.20075 4.51249 6.37858 4.56175 6.534 4.655L7.234 5.076C7.62481 5.31075 8.07211 5.43476 8.528 5.43476C8.98389 5.43476 9.43119 5.31075 9.822 5.076L10.522 4.655C10.6774 4.56175 10.8553 4.51249 11.0365 4.51249C11.2177 4.51249 11.3956 4.56175 11.551 4.655L12.251 5.076C12.6418 5.31075 13.0891 5.43476 13.545 5.43476C14.0009 5.43476 14.4482 5.31075 14.839 5.076L15.539 4.655C15.6975 4.56007 15.8792 4.51092 16.064 4.513Z" fill="white"/>
</svg>
