<svg width="80" height="26" viewBox="0 0 80 26" fill="none" xmlns="http://www.w3.org/2000/svg">
<mask id="mask0_2054_101482" style="mask-type:luminance" maskUnits="userSpaceOnUse" x="0" y="0" width="80" height="26">
<path d="M79.1087 0.789062H0.3125V25.3548H79.1087V0.789062Z" fill="white"/>
</mask>
<g mask="url(#mask0_2054_101482)">
<path d="M16.3701 12.0783C16.379 11.9019 16.3179 11.7291 16.2002 11.5975C16.0825 11.4658 15.9176 11.3859 15.7413 11.375H12.7898C12.6135 11.3859 12.4486 11.4658 12.3309 11.5975C12.2132 11.7291 12.1522 11.9019 12.161 12.0783V19.1163C12.1522 19.2927 12.2132 19.4654 12.3309 19.5971C12.4486 19.7288 12.6135 19.8087 12.7898 19.8196H15.7413C15.9176 19.8087 16.0825 19.7288 16.2002 19.5971C16.3179 19.4654 16.379 19.2927 16.3701 19.1163V12.0783ZM16.1317 16.3355H15.8143V14.8605H16.1317V16.3355Z" fill="#0B1F8F"/>
<path d="M7.31334 19.8676C6.82272 19.69 6.28534 19.69 5.79472 19.8676C5.35707 20.0407 4.97267 20.3258 4.6801 20.6945C4.38752 21.0631 4.19709 21.5022 4.12792 21.9677C4.09733 22.143 4.08197 22.3207 4.08203 22.4987C4.0818 22.7008 4.10196 22.9024 4.14221 23.1004C4.20701 23.6947 4.48898 24.2442 4.93402 24.6433C5.37907 25.0425 5.95583 25.2633 6.55365 25.2633C7.15147 25.2633 7.72824 25.0425 8.17328 24.6433C8.61833 24.2442 8.9003 23.6947 8.9651 23.1004C9.00534 22.9024 9.02551 22.7008 9.02527 22.4987C9.02537 22.3207 9.01002 22.143 8.97939 21.9677C8.91051 21.5021 8.72018 21.0628 8.42757 20.6942C8.13496 20.3255 7.75115 20.0404 7.31334 19.8676Z" fill="#0B1F8F"/>
<path d="M24.5208 19.7351C24.1387 19.7348 23.7629 19.8328 23.4295 20.0194C23.0759 20.2244 22.7727 20.5057 22.5418 20.8429C22.3109 21.1801 22.1583 21.5646 22.0951 21.9683C22.0645 22.1437 22.0492 22.3213 22.0492 22.4993V22.5189C22.0181 22.8623 22.0588 23.2085 22.1689 23.5354C22.2789 23.8622 22.4559 24.1625 22.6885 24.4171C22.9211 24.6718 23.2042 24.8751 23.5197 25.0143C23.8353 25.1534 24.1763 25.2253 24.5212 25.2253C24.8661 25.2253 25.2072 25.1534 25.5227 25.0143C25.8383 24.8751 26.1214 24.6718 26.3539 24.4171C26.5865 24.1625 26.7635 23.8622 26.8736 23.5354C26.9836 23.2085 27.0244 22.8623 26.9932 22.5189V22.4993C27.0294 21.8056 26.7899 21.1257 26.3269 20.6078C25.864 20.0898 25.215 19.7759 24.5216 19.7344" fill="#0B1F8F"/>
<path d="M30.806 19.7344C30.1126 19.7759 29.4636 20.0898 29.0006 20.6078C28.5377 21.1257 28.2982 21.8056 28.3344 22.4994V22.5189C28.3032 22.8624 28.3439 23.2085 28.454 23.5354C28.5641 23.8622 28.7411 24.1625 28.9737 24.4172C29.2062 24.6718 29.4893 24.8752 29.8049 25.0143C30.1204 25.1535 30.4615 25.2253 30.8064 25.2253C31.1512 25.2253 31.4923 25.1535 31.8079 25.0143C32.1234 24.8752 32.4065 24.6718 32.6391 24.4172C32.8717 24.1625 33.0487 23.8622 33.1587 23.5354C33.2688 23.2085 33.3095 22.8624 33.2784 22.5189V22.4994C33.3145 21.8056 33.0751 21.1257 32.6121 20.6078C32.1491 20.0898 31.4994 19.7759 30.806 19.7344Z" fill="#0B1F8F"/>
<path d="M60.4538 19.8222C59.8936 19.7591 59.3275 19.8676 58.8303 20.1334C58.3332 20.3992 57.9285 20.8097 57.6698 21.3106C57.4111 21.8115 57.3105 22.3791 57.3816 22.9384C57.4526 23.4976 57.6918 24.0221 58.0675 24.4424C58.4432 24.8628 58.9377 25.159 59.4855 25.2921C60.0334 25.4251 60.6087 25.3887 61.1353 25.1875C61.662 24.9864 62.1151 24.6301 62.4348 24.1657C62.7545 23.7014 62.9256 23.1509 62.9255 22.5871C62.9616 21.8934 62.7221 21.2135 62.2592 20.6956C61.7962 20.1776 61.1473 19.8637 60.4538 19.8222Z" fill="#0B1F8F"/>
<path d="M60.4527 21.957C60.3239 21.9427 60.1938 21.9679 60.0795 22.0291C59.9653 22.0904 59.8724 22.1849 59.8131 22.3001C59.7538 22.4154 59.7309 22.5459 59.7474 22.6745C59.7639 22.803 59.8192 22.9235 59.9057 23.02C59.9922 23.1165 60.1061 23.1844 60.2321 23.2148C60.3581 23.2452 60.4902 23.2366 60.6112 23.1901C60.7322 23.1437 60.8363 23.0616 60.9096 22.9547C60.9829 22.8478 61.022 22.7212 61.0217 22.5915C61.0261 22.5125 61.0148 22.4334 60.9886 22.3587C60.9623 22.284 60.9216 22.2152 60.8688 22.1563C60.8159 22.0974 60.752 22.0494 60.6806 22.0153C60.6092 21.9811 60.5318 21.9613 60.4527 21.957Z" fill="#0B1F8F"/>
<path d="M66.5397 19.8222C65.9795 19.7591 65.4133 19.8676 64.9162 20.1334C64.419 20.3992 64.0143 20.8097 63.7556 21.3106C63.4969 21.8115 63.3965 22.3791 63.4675 22.9384C63.5385 23.4976 63.7778 24.0221 64.1535 24.4424C64.5292 24.8628 65.0237 25.159 65.5715 25.2921C66.1193 25.4251 66.6946 25.3887 67.2213 25.1875C67.7479 24.9864 68.201 24.6301 68.5207 24.1657C68.8403 23.7014 69.0114 23.1509 69.0113 22.5871C69.0475 21.8934 68.808 21.2135 68.345 20.6956C67.882 20.1776 67.2331 19.8637 66.5397 19.8222Z" fill="#0B1F8F"/>
<path d="M67.4708 21.9355C67.4842 21.931 67.4987 21.931 67.5121 21.9355C67.4817 21.8768 67.4455 21.8214 67.4039 21.7701C67.4025 21.7853 67.3976 21.8 67.3895 21.8129C67.3407 21.8881 67.1999 21.8701 67.0781 21.7701C66.9562 21.67 66.8969 21.5286 66.9465 21.4519C66.9545 21.4398 66.9653 21.43 66.9781 21.4233C66.9221 21.3966 66.8636 21.3752 66.8036 21.3594C66.8112 21.3734 66.8151 21.3893 66.8149 21.4053C66.8149 21.4978 66.693 21.5737 66.5403 21.5737C66.3876 21.5737 66.2673 21.4985 66.2673 21.4053C66.2671 21.3893 66.2709 21.3735 66.2786 21.3594C66.2179 21.3746 66.1589 21.3961 66.1025 21.4233C66.1164 21.429 66.1281 21.439 66.1357 21.4519C66.1853 21.5271 66.1259 21.6708 66.004 21.7701C65.8822 21.8693 65.7423 21.8889 65.6927 21.8129C65.6846 21.7994 65.6797 21.7842 65.6783 21.7686C65.636 21.821 65.5987 21.8775 65.5671 21.937C65.5814 21.9317 65.5971 21.9317 65.6114 21.937C65.6911 21.9656 65.7174 22.1198 65.6716 22.28C65.6257 22.4402 65.5212 22.5485 65.4415 22.52C65.4279 22.5149 65.416 22.5063 65.4068 22.4952C65.4068 22.529 65.4023 22.5628 65.4023 22.5967C65.4023 22.6305 65.4023 22.6659 65.4068 22.6997C65.416 22.6885 65.4279 22.68 65.4415 22.6749C65.5227 22.6463 65.6242 22.7501 65.6716 22.9134C65.7189 23.0766 65.6904 23.2292 65.6114 23.2578C65.5975 23.2623 65.5825 23.2623 65.5685 23.2578C65.5996 23.3174 65.6364 23.3738 65.6783 23.4263C65.6788 23.41 65.6837 23.3941 65.6927 23.3804C65.7423 23.3052 65.8814 23.3233 66.004 23.4233C66.1266 23.5233 66.1853 23.6648 66.1357 23.7415C66.1272 23.7551 66.1153 23.7663 66.1011 23.7738C66.1579 23.8008 66.2174 23.8217 66.2786 23.8363C66.2709 23.8222 66.2671 23.8064 66.2673 23.7904C66.2673 23.6964 66.3891 23.6196 66.5403 23.6196C66.6915 23.6196 66.8149 23.6948 66.8149 23.7904C66.8151 23.8064 66.8112 23.8222 66.8036 23.8363C66.8645 23.8215 66.9237 23.8006 66.9803 23.7738C66.967 23.7657 66.9557 23.7546 66.9473 23.7415C66.8976 23.6663 66.9571 23.5226 67.0789 23.4233C67.2008 23.324 67.3414 23.306 67.3903 23.3804C67.3983 23.394 67.4032 23.4091 67.4046 23.4248C67.4466 23.3738 67.4829 23.3183 67.5129 23.2593C67.4993 23.263 67.4851 23.263 67.4715 23.2593C67.3918 23.2308 67.3647 23.0766 67.4113 22.9148C67.4579 22.7531 67.5618 22.6486 67.6415 22.6764C67.655 22.6815 67.667 22.6901 67.6761 22.7012C67.6761 22.6674 67.6806 22.6335 67.6806 22.5982C67.6806 22.5628 67.6806 22.5305 67.6761 22.4966C67.667 22.5078 67.655 22.5164 67.6415 22.5215C67.5603 22.55 67.4587 22.4462 67.4113 22.2815C67.3639 22.1168 67.3926 21.9671 67.4715 21.9385M66.5403 23.3722C66.3835 23.3897 66.225 23.3592 66.0859 23.2847C65.9468 23.2102 65.8336 23.0952 65.7613 22.955C65.6889 22.8147 65.6609 22.6558 65.6808 22.4993C65.7008 22.3427 65.7677 22.196 65.8729 22.0783C65.9781 21.9607 66.1166 21.8778 66.2699 21.8405C66.4233 21.8033 66.5842 21.8135 66.7317 21.8697C66.8791 21.926 67.006 22.0257 67.0955 22.1556C67.1851 22.2856 67.233 22.4396 67.2331 22.5974C67.2432 22.7918 67.176 22.9823 67.0462 23.1275C66.9165 23.2726 66.7346 23.3605 66.5403 23.3722Z" fill="#0B1F8F"/>
<path d="M66.5426 21.957C66.4138 21.9427 66.2836 21.9679 66.1694 22.0291C66.0552 22.0904 65.9623 22.1849 65.9029 22.3001C65.8436 22.4154 65.8207 22.5459 65.8373 22.6745C65.8538 22.803 65.909 22.9235 65.9956 23.02C66.0821 23.1165 66.1959 23.1844 66.3219 23.2148C66.4479 23.2452 66.5801 23.2366 66.7011 23.1901C66.8221 23.1437 66.9262 23.0616 66.9995 22.9547C67.0728 22.8478 67.1119 22.7212 67.1116 22.5915C67.116 22.5125 67.1047 22.4334 67.0784 22.3587C67.0522 22.284 67.0115 22.2152 66.9586 22.1563C66.9058 22.0974 66.8418 22.0494 66.7704 22.0153C66.6991 21.9811 66.6216 21.9613 66.5426 21.957Z" fill="#0B1F8F"/>
<path d="M73.7567 21.9355C73.7701 21.9311 73.7847 21.9311 73.7981 21.9355C73.7681 21.8761 73.7318 21.8202 73.6898 21.7686C73.6885 21.7843 73.6837 21.7994 73.6755 21.8129C73.6266 21.8881 73.4867 21.8701 73.3641 21.7701C73.2415 21.67 73.1828 21.5286 73.2324 21.4519C73.2401 21.4391 73.2518 21.429 73.2656 21.4233C73.2096 21.3953 73.1505 21.3738 73.0895 21.3594C73.0972 21.3735 73.101 21.3893 73.1008 21.4053C73.1008 21.4978 72.979 21.5737 72.8278 21.5737C72.6766 21.5737 72.5532 21.4985 72.5532 21.4053C72.553 21.3893 72.5569 21.3735 72.5645 21.3594C72.5041 21.3754 72.4452 21.3968 72.3885 21.4233C72.4024 21.429 72.414 21.439 72.4217 21.4519C72.4706 21.5271 72.4119 21.6708 72.29 21.7701C72.1682 21.8693 72.0275 21.8889 71.9786 21.8129C71.9704 21.7994 71.9656 21.7843 71.9643 21.7686C71.9219 21.821 71.8846 21.8775 71.853 21.937C71.8673 21.9317 71.8831 21.9317 71.8974 21.937C71.9771 21.9656 72.0042 22.1198 71.9575 22.28C71.9109 22.4402 71.8071 22.5485 71.7273 22.52C71.7136 22.515 71.7014 22.5064 71.692 22.4952C71.689 22.5287 71.6875 22.5626 71.6875 22.5967C71.6875 22.632 71.6875 22.6659 71.692 22.6997C71.7014 22.6884 71.7136 22.6799 71.7273 22.6749C71.8086 22.6463 71.9101 22.7501 71.9575 22.9134C72.0049 23.0766 71.9764 23.2292 71.8974 23.2578C71.8835 23.2623 71.8685 23.2623 71.8545 23.2578C71.8857 23.3174 71.9224 23.3738 71.9643 23.4263C71.9646 23.41 71.9695 23.3941 71.9786 23.3804C72.0275 23.3052 72.1674 23.3233 72.29 23.4233C72.4126 23.5233 72.4713 23.6648 72.4217 23.7415C72.4132 23.7551 72.4012 23.7663 72.3871 23.7738C72.4439 23.8008 72.5033 23.8218 72.5645 23.8363C72.557 23.8222 72.5531 23.8064 72.5532 23.7904C72.5532 23.6964 72.6758 23.6196 72.8278 23.6196C72.9797 23.6196 73.1008 23.6948 73.1008 23.7904C73.101 23.8064 73.0971 23.8222 73.0895 23.8363C73.1508 23.8218 73.2102 23.8008 73.267 23.7738C73.2528 23.7663 73.2409 23.7551 73.2324 23.7415C73.1835 23.6663 73.2422 23.5226 73.3641 23.4233C73.4859 23.324 73.6266 23.306 73.6755 23.3804C73.6846 23.3941 73.6895 23.41 73.6898 23.4263C73.7318 23.3747 73.7681 23.3188 73.7981 23.2593C73.7846 23.263 73.7702 23.263 73.7567 23.2593C73.677 23.2308 73.6507 23.0766 73.6966 22.9148C73.7424 22.7531 73.847 22.6486 73.9267 22.6764C73.9405 22.6814 73.9528 22.6899 73.9621 22.7012C73.9621 22.6674 73.9666 22.6335 73.9666 22.5982C73.9666 22.5628 73.9666 22.5305 73.9621 22.4966C73.9528 22.508 73.9405 22.5165 73.9267 22.5215C73.8455 22.55 73.7439 22.4462 73.6966 22.2815C73.6492 22.1168 73.6777 21.9671 73.7567 21.9385M72.8278 23.3722C72.671 23.3897 72.5125 23.3592 72.3734 23.2847C72.2343 23.2102 72.1211 23.0952 72.0488 22.955C71.9765 22.8147 71.9483 22.6558 71.9683 22.4993C71.9882 22.3427 72.0553 22.196 72.1605 22.0783C72.2656 21.9607 72.404 21.8778 72.5574 21.8405C72.7107 21.8033 72.8717 21.8135 73.0191 21.8697C73.1666 21.926 73.2935 22.0257 73.383 22.1556C73.4725 22.2856 73.5205 22.4396 73.5205 22.5974C73.531 22.7919 73.464 22.9827 73.3341 23.1279C73.2043 23.2731 73.0222 23.3609 72.8278 23.3722Z" fill="#0B1F8F"/>
<path d="M72.8249 19.8222C72.2647 19.7591 71.6985 19.8676 71.2013 20.1334C70.7042 20.3992 70.2995 20.8097 70.0408 21.3106C69.7821 21.8115 69.6816 22.3791 69.7527 22.9384C69.8237 23.4976 70.0629 24.0221 70.4386 24.4424C70.8143 24.8628 71.3088 25.159 71.8566 25.2921C72.4045 25.4251 72.9798 25.3887 73.5064 25.1875C74.0331 24.9864 74.4862 24.6301 74.8059 24.1657C75.1256 23.7014 75.2966 23.1509 75.2965 22.5871C75.3327 21.8934 75.0931 21.2135 74.6302 20.6956C74.1672 20.1776 73.5183 19.8637 72.8249 19.8222Z" fill="#0B1F8F"/>
<path d="M72.8253 21.9572C72.6964 21.9426 72.5662 21.9674 72.4518 22.0285C72.3374 22.0895 72.2443 22.1839 72.1847 22.2991C72.1252 22.4143 72.102 22.5448 72.1184 22.6735C72.1347 22.8021 72.1898 22.9227 72.2762 23.0194C72.3627 23.116 72.4764 23.1841 72.6024 23.2147C72.7284 23.2452 72.8607 23.2367 72.9818 23.1903C73.1029 23.1439 73.2071 23.0619 73.2804 22.955C73.3538 22.8481 73.393 22.7214 73.3928 22.5917C73.4016 22.4323 73.3468 22.276 73.2404 22.157C73.134 22.038 72.9847 21.9662 72.8253 21.9572Z" fill="#0B1F8F"/>
<path d="M78.5793 2.09633H78.2152V0.789062H25.5433L20.8302 4.94327V0.789062H19.6117V14.6582L20.8295 15.9828H23.2552C22.8472 16.6034 22.5556 17.2931 22.3947 18.0182H21.9607C21.9068 18.0215 21.8563 18.0459 21.8203 18.0862C21.7842 18.1265 21.7655 18.1793 21.7682 18.2333V18.653H20.8468C20.3855 17.4664 19.5915 16.4382 18.5602 15.6917V14.8989C18.5616 14.8719 18.5577 14.8449 18.5486 14.8194C18.5395 14.7939 18.5255 14.7704 18.5073 14.7503C18.4891 14.7303 18.4672 14.714 18.4427 14.7025C18.4182 14.6909 18.3917 14.6843 18.3646 14.6831H18.2616V8.14374C18.2645 8.08971 18.2458 8.03674 18.2097 7.99642C18.1736 7.95611 18.1231 7.93173 18.069 7.92862H16.9867C16.9599 7.93006 16.9337 7.93678 16.9095 7.94837C16.8853 7.95997 16.8636 7.97623 16.8457 7.99622C16.8279 8.0162 16.8141 8.03952 16.8052 8.06483C16.7964 8.09015 16.7926 8.11696 16.7941 8.14374V10.6116H16.2142V7.92862C13.4207 8.03664 10.722 8.97059 8.45936 10.6124H7.899L6.39467 13.5458L2.09002 15.26C1.95453 15.3199 1.83992 15.4188 1.76077 15.544C1.68161 15.6692 1.64149 15.8152 1.64549 15.9633V15.9828H0.851205C0.797186 15.9859 0.746598 16.0103 0.71051 16.0506C0.674423 16.0909 0.655776 16.1439 0.65865 16.1979V22.0648C0.550147 22.1359 0.461476 22.2334 0.400956 22.3481C0.340436 22.4628 0.310052 22.591 0.312654 22.7207V23.1066H3.94261C3.90683 22.908 3.88871 22.7066 3.88845 22.5048C3.88815 22.327 3.90249 22.1494 3.93132 21.9738C3.99297 21.5449 4.14729 21.1346 4.38357 20.7715C4.61985 20.4083 4.93241 20.1009 5.29951 19.8708C5.6778 19.6418 6.11156 19.5207 6.55375 19.5207C6.99595 19.5207 7.4297 19.6418 7.80799 19.8708C8.1746 20.1007 8.4868 20.4076 8.72292 20.7702C8.95905 21.1329 9.11346 21.5425 9.17543 21.9708C9.20423 22.1463 9.21857 22.324 9.2183 22.5018C9.21804 22.7036 9.19992 22.905 9.16414 23.1036H14.2225C14.2492 23.1021 14.2755 23.0954 14.2997 23.0838C14.3238 23.0722 14.3455 23.056 14.3634 23.036C14.3813 23.016 14.395 22.9927 14.4039 22.9674C14.4128 22.942 14.4165 22.9152 14.415 22.8885V21.9708H19.6117V22.307C19.6091 22.3613 19.628 22.4143 19.6644 22.4546C19.7007 22.495 19.7516 22.5192 19.8058 22.5221H21.86V22.5026C21.8597 22.3247 21.874 22.1471 21.9028 21.9716C21.9648 21.5433 22.1192 21.1336 22.3553 20.771C22.5915 20.4083 22.9037 20.1014 23.2703 19.8715C23.6483 19.643 24.0816 19.5221 24.5234 19.5218C25.2714 19.5658 25.9717 19.9041 26.4711 20.4628C26.9706 21.0214 27.2287 21.755 27.189 22.5033V22.5229H28.1428V22.5033C28.1021 21.7545 28.3596 21.0201 28.859 20.4606C29.3585 19.9011 30.0591 19.5622 30.8077 19.518C31.5558 19.5621 32.256 19.9004 32.7555 20.459C33.255 21.0177 33.513 21.7513 33.4734 22.4996V22.5191H35.0477V23.5225H35.3756V20.6274C36.747 21.3995 38.2786 21.8436 39.8503 21.9249V22.1325H40.0759V22.5906H57.7894C57.7476 22.2157 57.7853 21.8362 57.9001 21.4768C58.015 21.1175 58.2043 20.7865 58.4559 20.5053C58.7074 20.2242 59.0154 19.9993 59.3597 19.8453C59.7041 19.6913 60.0771 19.6117 60.4543 19.6117C60.8316 19.6117 61.2046 19.6913 61.5489 19.8453C61.8933 19.9993 62.2013 20.2242 62.4528 20.5053C62.7043 20.7865 62.8937 21.1175 63.0085 21.4768C63.1234 21.8362 63.1611 22.2157 63.1193 22.5906H63.8767C63.8349 22.2157 63.8726 21.8362 63.9874 21.4768C64.1023 21.1175 64.2916 20.7865 64.5431 20.5053C64.7947 20.2242 65.1027 19.9993 65.447 19.8453C65.7914 19.6913 66.1644 19.6117 66.5416 19.6117C66.9189 19.6117 67.2918 19.6913 67.6362 19.8453C67.9806 19.9993 68.2886 20.2242 68.5401 20.5053C68.7916 20.7865 68.981 21.1175 69.0958 21.4768C69.2107 21.8362 69.2484 22.2157 69.2065 22.5906H70.161C70.1192 22.2157 70.1569 21.8362 70.2718 21.4768C70.3866 21.1175 70.576 20.7865 70.8275 20.5053C71.079 20.2242 71.387 19.9993 71.7314 19.8453C72.0757 19.6913 72.4487 19.6117 72.826 19.6117C73.2032 19.6117 73.5762 19.6913 73.9206 19.8453C74.2649 19.9993 74.5729 20.2242 74.8245 20.5053C75.076 20.7865 75.2653 21.1175 75.3802 21.4768C75.495 21.8362 75.5327 22.2157 75.4909 22.5906H77.084V23.5248H77.4119V21.5692H77.6646L77.9174 20.4868H77.4097V20.8531V15.9836H79.1073V2.09633H78.5793ZM0.882796 16.4755H1.42962C1.50403 16.4752 1.57763 16.4909 1.64549 16.5214C1.7649 16.5774 1.86531 16.6672 1.9344 16.7796C2.00348 16.892 2.03823 17.0221 2.03436 17.1539V19.0584C2.03823 19.1903 2.00348 19.3204 1.9344 19.4328C1.86531 19.5452 1.7649 19.6349 1.64549 19.691C1.57763 19.7215 1.50403 19.7371 1.42962 19.7369H0.882796V16.4755ZM0.882796 20.3965H2.03511V21.0186H0.882796V20.3965ZM6.09155 18.6538H5.5199C5.46828 18.6484 5.42049 18.6241 5.38575 18.5855C5.351 18.547 5.33178 18.4969 5.33178 18.445C5.33178 18.3931 5.351 18.3431 5.38575 18.3045C5.42049 18.266 5.46828 18.2417 5.5199 18.2363H6.09155C6.14316 18.2417 6.19095 18.266 6.2257 18.3045C6.26044 18.3431 6.27967 18.3931 6.27967 18.445C6.27967 18.4969 6.26044 18.547 6.2257 18.5855C6.19095 18.6241 6.14316 18.6484 6.09155 18.6538ZM29.0409 17.4683H30.5347V18.3551H29.0409V17.4683ZM24.1653 17.4841H25.6606V18.3709H24.1653V17.4841ZM20.673 18.653H19.805C19.7508 18.6559 19.7 18.6802 19.6636 18.7205C19.6272 18.7608 19.6083 18.8139 19.611 18.8681V19.87H18.2571V16.4755H18.3646C18.4186 16.4722 18.4691 16.4477 18.5051 16.4075C18.5411 16.3672 18.5599 16.3143 18.5572 16.2604V15.9076C19.5019 16.6111 20.2343 17.5616 20.6738 18.6545M7.17542 13.5563C7.1405 13.5554 7.10649 13.545 7.07706 13.5262C7.04763 13.5073 7.0239 13.4808 7.00844 13.4495C6.99158 13.4162 6.9828 13.3793 6.9828 13.342C6.9828 13.3046 6.99158 13.2677 7.00844 13.2344L7.86967 11.5322C7.8968 11.475 7.93929 11.4264 7.99241 11.3919C8.04553 11.3573 8.10719 11.3382 8.17053 11.3367H11.0536C11.1017 11.3394 11.1489 11.3515 11.1924 11.3725C11.2358 11.3934 11.2747 11.4227 11.3069 11.4587C11.339 11.4946 11.3637 11.5366 11.3796 11.5821C11.3955 11.6277 11.4023 11.6759 11.3996 11.7241V13.1682C11.4047 13.2654 11.3712 13.3606 11.3064 13.4332C11.2416 13.5058 11.1507 13.5498 11.0536 13.5556L7.17542 13.5563ZM11.3996 15.3615H11.1882V14.2528H11.3996V15.3615ZM15.7426 19.9136H12.7911C12.7113 19.9134 12.6322 19.8983 12.5579 19.8693C12.4131 19.8061 12.2906 19.7011 12.206 19.5677C12.1214 19.4344 12.0787 19.2787 12.0833 19.1209V12.0828C12.0724 11.8839 12.1409 11.6888 12.2738 11.5403C12.4066 11.3918 12.5929 11.3021 12.7918 11.2908H15.7433C15.9423 11.3021 16.1286 11.3918 16.2614 11.5403C16.3943 11.6888 16.4628 11.8839 16.4519 12.0828V19.1224C16.4564 19.2803 16.4136 19.436 16.3289 19.5694C16.2441 19.7028 16.1214 19.8077 15.9765 19.8708C15.9022 19.8998 15.8231 19.9149 15.7433 19.9151M18.2616 20.3078H19.6155V21.3082H18.2616V20.3078ZM23.3417 18.653V18.2333C23.3444 18.1793 23.3257 18.1265 23.2896 18.0862C23.2536 18.0459 23.2031 18.0215 23.1492 18.0182H22.8874C23.0797 17.285 23.4081 16.5946 23.8554 15.9828H26.5144V17.2036H23.8509V18.6538L23.3417 18.653ZM30.8085 18.653V17.2036H28.1428V16.4755H34.5919V15.9828H40.0752V18.723H39.2749V19.2593C37.8635 19.3041 36.4507 19.2431 35.0484 19.0765V18.6538L30.8085 18.653ZM35.3771 20.4281V19.7617H35.0477V19.6113C36.1483 19.7398 37.2552 19.8074 38.3632 19.8136C38.6641 19.8136 38.9702 19.8083 39.2733 19.794V20.1408H40.0752V21.5338H39.8495V21.7452C38.2757 21.6609 36.7435 21.2094 35.3756 20.4266" fill="#0B1F8F"/>
<path d="M77.6629 19.9585L77.9156 17.0859H77.4102V19.9585H77.6629Z" fill="#0B1F8F"/>
</g>
</svg>
